<svg width="28" height="26" viewBox="0 0 28 26" fill="none" xmlns="http://www.w3.org/2000/svg">
<path d="M4.49764 25.3965H3.19028L1.13469 22.9704V25.3965H0V20.2189H1.13469V22.5044L3.10806 20.2189H4.41541L2.28582 22.7337L4.49764 25.3965Z" fill="white"/>
<path d="M4.92559 25.3965V24.4497C5.26544 24.4941 5.52034 24.4324 5.69027 24.2648C5.8602 24.0971 5.94516 23.7692 5.94516 23.2811V20.2189H9.85901V25.3965H8.73254V21.1953H7.07163V23.2515C7.07163 23.7002 7.01133 24.0774 6.89073 24.3831C6.77014 24.6889 6.60295 24.9157 6.38917 25.0636C6.18087 25.2115 5.95612 25.3102 5.71493 25.3595C5.47923 25.4088 5.21611 25.4211 4.92559 25.3965Z" fill="white"/>
<path d="M14.8729 25.3965L14.5275 24.4645H12.2335L11.8881 25.3965H10.663L12.6775 20.2189H14.0835L16.1062 25.3965H14.8729ZM12.5953 23.5104H14.174L13.3846 21.395L12.5953 23.5104Z" fill="white"/>
<path d="M19.4328 25.5C18.5667 25.5 17.8514 25.2411 17.2868 24.7234C16.7222 24.2056 16.4399 23.5671 16.4399 22.8077C16.4399 22.0434 16.7222 21.4048 17.2868 20.892C17.8514 20.3743 18.5667 20.1154 19.4328 20.1154C19.9536 20.1154 20.4332 20.2263 20.8717 20.4482C21.3157 20.6652 21.6611 20.961 21.9077 21.3358L20.9293 21.8462C20.7868 21.6144 20.5839 21.4344 20.3208 21.3062C20.0577 21.1731 19.7617 21.1065 19.4328 21.1065C18.8737 21.1065 18.4215 21.2643 18.0761 21.5799C17.7363 21.8955 17.5663 22.3047 17.5663 22.8077C17.5663 23.3057 17.7363 23.7125 18.0761 24.0281C18.4215 24.3437 18.8737 24.5015 19.4328 24.5015C19.7617 24.5015 20.0577 24.4374 20.3208 24.3092C20.5894 24.176 20.7922 23.9961 20.9293 23.7692L21.9077 24.2796C21.6611 24.6543 21.3185 24.9527 20.8799 25.1746C20.4414 25.3915 19.959 25.5 19.4328 25.5Z" fill="white"/>
<path d="M25.5251 25.5C24.659 25.5 23.9436 25.2411 23.379 24.7234C22.8144 24.2056 22.5321 23.5671 22.5321 22.8077C22.5321 22.0434 22.8144 21.4048 23.379 20.892C23.9436 20.3743 24.659 20.1154 25.5251 20.1154C26.0458 20.1154 26.5255 20.2263 26.964 20.4482C27.408 20.6652 27.7533 20.961 28 21.3358L27.0215 21.8462C26.879 21.6144 26.6762 21.4344 26.4131 21.3062C26.15 21.1731 25.854 21.1065 25.5251 21.1065C24.9659 21.1065 24.5137 21.2643 24.1684 21.5799C23.8285 21.8955 23.6586 22.3047 23.6586 22.8077C23.6586 23.3057 23.8285 23.7125 24.1684 24.0281C24.5137 24.3437 24.9659 24.5015 25.5251 24.5015C25.854 24.5015 26.15 24.4374 26.4131 24.3092C26.6817 24.176 26.8845 23.9961 27.0215 23.7692L28 24.2796C27.7533 24.6543 27.4107 24.9527 26.9722 25.1746C26.5337 25.3915 26.0513 25.5 25.5251 25.5Z" fill="white"/>
<path d="M11.9895 0.885959C11.8339 0.529833 11.3926 0.241272 11.0048 0.241272H9.19254C8.80333 0.241272 8.36345 0.529833 8.21002 0.887367L1.13043 17.2664C0.976298 17.6225 1.16633 17.9124 1.55553 17.9124H4.44043C4.82964 17.9124 5.25967 17.6183 5.40183 17.2565L6.35901 14.822C6.50118 14.4603 6.93121 14.1675 7.32041 14.1675H12.7756C13.1655 14.1675 13.5991 14.4589 13.7448 14.8192L14.7371 17.2593C14.8828 17.6197 15.3171 17.9124 15.7063 17.9124H18.6904C19.0796 17.9124 19.2682 17.6239 19.1141 17.2664L11.9895 0.885959ZM11.4532 10.8744H8.54292C8.15372 10.8744 7.95384 10.5802 8.0953 10.2184L9.72884 6.03853C9.8703 5.67536 10.1011 5.67536 10.2447 6.03712L11.8987 10.2198C12.0401 10.5816 11.8424 10.8744 11.4532 10.8744Z" fill="white"/>
<rect x="22.8953" y="4.94049" width="1.12688" height="7.88819" rx="0.563442" fill="white"/>
<rect x="19.5154" y="9.44807" width="1.12688" height="7.88819" rx="0.563442" transform="rotate(-90 19.5154 9.44807)" fill="white"/>
</svg>
