<?xml version="1.0" encoding="UTF-8" standalone="no"?>
<svg
   xmlns:dc="http://purl.org/dc/elements/1.1/"
   xmlns:cc="http://creativecommons.org/ns#"
   xmlns:rdf="http://www.w3.org/1999/02/22-rdf-syntax-ns#"
   xmlns:svg="http://www.w3.org/2000/svg"
   xmlns="http://www.w3.org/2000/svg"
   xmlns:sodipodi="http://sodipodi.sourceforge.net/DTD/sodipodi-0.dtd"
   xmlns:inkscape="http://www.inkscape.org/namespaces/inkscape"
   width="9"
   height="8"
   viewBox="0 0 9 8"
   fill="none"
   version="1.1"
   id="svg6"
   sodipodi:docname="close_hover.svg"
   inkscape:version="1.0.2 (e86c870879, 2021-01-15)">
  <metadata
     id="metadata12">
    <rdf:RDF>
      <cc:Work
         rdf:about="">
        <dc:format>image/svg+xml</dc:format>
        <dc:type
           rdf:resource="http://purl.org/dc/dcmitype/StillImage" />
        <dc:title></dc:title>
      </cc:Work>
    </rdf:RDF>
  </metadata>
  <defs
     id="defs10" />
  <sodipodi:namedview
     pagecolor="#ffffff"
     bordercolor="#666666"
     borderopacity="1"
     objecttolerance="10"
     gridtolerance="10"
     guidetolerance="10"
     inkscape:pageopacity="0"
     inkscape:pageshadow="2"
     inkscape:window-width="1920"
     inkscape:window-height="1017"
     id="namedview8"
     showgrid="false"
     inkscape:zoom="91.875"
     inkscape:cx="4.5"
     inkscape:cy="4"
     inkscape:window-x="-8"
     inkscape:window-y="-8"
     inkscape:window-maximized="1"
     inkscape:current-layer="svg6" />
  <path
     d="M8.25006 7.8334C8.05812 7.8334 7.86618 7.76968 7.71974 7.64208L0.219779 1.11433C-0.0732596 0.859275 -0.0732596 0.446226 0.219779 0.191313C0.512657 -0.0635997 0.987383 -0.0637391 1.28026 0.191313L8.78022 6.71907C9.07326 6.97412 9.07326 7.38717 8.78022 7.64208C8.63378 7.76968 8.442 7.8334 8.25006 7.8334Z"
     fill="#00B49D"
     id="path2" />
  <path
     d="M0.749945 7.83337C0.558003 7.83337 0.366221 7.76965 0.21978 7.64205C-0.0732601 7.38714 -0.0732601 6.97395 0.21978 6.71904L7.71979 0.191289C8.01283 -0.0637631 8.4874 -0.0637631 8.78028 0.191289C9.07316 0.446202 9.07332 0.859389 8.78028 1.1143L1.28027 7.64205C1.13383 7.76965 0.941887 7.83337 0.749945 7.83337Z"
     fill="#00B49D"
     id="path4" />
</svg>
